<svg version="1.1" id="Layer_1" xmlns="http://www.w3.org/2000/svg" x="0" y="0" width="350" height="295.6" xml:space="preserve"><path d="M343.2 181.8c-6.2 11.7-17.4 20.8-20.5 33.6-1.4 5.5-1 11.3-1.7 17-2.5 19.9-17.3 36.3-35.1 45.7-.8.4-1.5.8-2.3 1.2-11.7 5.7-24.3 8.8-37.1 10.7-7.8 1.2-15.7 1.9-23.6 2.5-32.6 2.6-65.2 3.5-98 2.8-15.8-.3-31.9-1.1-46.8-6.3-.8-.3-1.5-.5-2.3-.8-12.1-4.6-22.8-12.3-32.3-21.2l-.4-.4c-14.1-13.2-25.9-29.2-33.4-47C-1.1 194-2.9 165.7 4.4 139c4.5-15.9 12.3-30.9 13.5-47.3.9-12.3-2-24.8-.1-37 4-24.3 26.5-42.1 50.3-48.1s48.9-2.6 73.2.8c11.9 1.7 25.8 6.3 37.5 2.6C193.2 5.6 205.4 0 221 0c6.3 0 12.8.7 18.7 3.2 7.1 3.1 12.7 8.7 18.4 13.9 16 14.3 34.2 25.9 50.6 39.9 16.4 13.9 31.2 30.9 37.2 51.6 3 10.1 3.7 20.7 4 31.2.5 14.3 0 29.3-6.7 42z" opacity=".18" fill="#fc5b3f"/></svg>