<svg version="1.1" id="Layer_1" xmlns="http://www.w3.org/2000/svg" x="0" y="0" width="406" height="306" xml:space="preserve"><path d="M185.7 5.5c11.1 1.7 21.8 5 32 9.7 14.1 6.7 25.7 17.1 38.9 25.1 22.5 13.7 49.5 21.5 75.1 26.9 10.2 2.2 20.6 4.2 29.8 9 14.1 7.5 24.1 21 31.2 35.4 15.3 31.5 18.2 69.8 4.5 102.1-13.4 31.5-43.9 58-78.5 61.4-43.7 4.5-87.5 13.1-131.3 18.5-30.4 4.5-61 9-91.8 9.4-12.8.1-25.9-.5-38.1-4.6C34.6 290.6 14 274.5 5 251.6c-7.3-18.8-6.6-39.7 1.8-58 5.1-11.1 13.1-20.9 16.8-32.6 3.4-10.5 3-21.7 2.5-32.6-.6-10.2.6-20.3 3.8-30C36 78.6 45.5 59.6 59 43.9 75.6 24.4 98.5 9.8 123.7 5.1c9.8-1.6 19.6-2.3 29.5-2.1 10.9 0 21.7.8 32.5 2.5z" opacity=".18" fill="#fc5b3f"/></svg>