<svg version="1.1" id="Layer_1" xmlns="http://www.w3.org/2000/svg" x="0" y="0" width="350" height="295.6" xml:space="preserve"><path d="M140.2 52.5l-11-2.8c-16.1-3.9-33.5-7.9-49-2-12.6 4.9-22 15.5-30.8 25.7-11.6 13.4-23.2 27-31.9 42.4-20.5 36.7-23.6 88.6-6.2 126.7 6.9 15.2 16.1 29.9 30 39.2 14.4 9.7 32.6 12.7 49.9 11.1s33.9-7.6 49.8-14.3c17.8-7.6 36.6-16.7 55.6-12.9 9.9 2 18.8 7.2 27.7 12 15.6 8.3 32.4 15.4 50.1 16.9s36.5-3 49.3-15.4c12.5-12 17.8-29.6 20.8-46.6 3.2-17.7 3.8-35.8 2.1-53.6-1.7-17.3 5.6-33.8 2.7-51.6-2.2-13.9-9.5-27.5-21.4-35.2-14.7-9.5-33.6-8.8-51.1-8.4-14.9.4-29.8.3-44.8-.2-9.2-.3-18.3-.8-27.1-3.7-9.9-3.3-18.6-9.4-27.9-14.1-11.6-6.1-24.1-9.9-36.8-13.2z" opacity=".18" fill="#fc5b3f"/></svg>