<svg version="1.1" id="Layer_1" xmlns="http://www.w3.org/2000/svg" x="0" y="0" width="500" height="393.7" xml:space="preserve"><path d="M481.3 238.3c-2.1-3.9-4.3-7.8-6.6-11.6l-6.7-10.6c-10.1-15.1-21.3-30-26.2-47.5-6.1-21.6 0-45.6-6.5-66.6-5.6-18.2-22.5-37.2-35.2-50.7C371.7 21.3 333.3-.5 291.3 0c-8.1.1-16.1 1-24.1 2.5-15.7 2.9-31.2 7.8-46.4 13-38.5 13-77.1 27.6-110.1 51.3S50.5 124.6 43 164.6c-3.9 20.6-2.5 42.4-9.2 62.3-8 23.9-25.8 39.5-31.5 64.3-6.5 28.5.3 62.2 24.2 79.1 12.4 8.8 28 12 43 13.8 37.9 4.4 76.3.7 112.7-10.8 20.5-6.5 40.8-15.6 62.3-15.7 23.2-.1 44.9 10.2 66.5 18.6 33.2 12.7 69 21.4 104 15.8s69-28 80.5-61.5c10.5-30.4 1.3-63.1-14.2-92.2z" opacity=".18" fill="#fc5b3f"/><linearGradient id="SVGID_1_" gradientUnits="userSpaceOnUse" x1="264.343" y1="44.116" x2="268.701" y2="40.862" gradientTransform="matrix(1 0 0 -1 0 394)"><stop offset=".01"/><stop offset=".08" stop-opacity=".69"/><stop offset=".21" stop-opacity=".32"/><stop offset="1" stop-opacity="0"/></linearGradient><path d="M265.5 350.9l1 .1c.7.6-1.3.7-1-.1z" fill="url(#SVGID_1_)"/></svg>