<svg version="1.1" id="Layer_1" xmlns="http://www.w3.org/2000/svg" x="0" y="0" width="350" height="295.6" xml:space="preserve"><path d="M211.3 40.2c13.4 2.9 26.8 7 38.3 14.5 31.2 20.5 42 60.9 66.9 88.8 10.9 12.1 24.7 22.4 30.5 37.7 4.5 12.1 3.3 25.5 1.2 38.3-1.9 11.8-4.4 23.4-7.6 34.9-1.9 7.1-4.1 14.2-8.2 20.3-12.3 18.2-37.5 21.6-59.4 21.5-22.4-.2-44.9-2.5-66.9-6.8-11-2.2-22.1-4.8-33.3-5.6-24.3-1.7-48.3 5.4-72.4 9.6s-50.5 5.2-71.3-7.6C13 275.7 2.4 258.7.4 239.8c-1.3-13.7 2-27.2 5.6-40.5 4.6-17 9.7-33.9 15.2-50.8 4.3-12.9 8.9-25.9 15.9-37.7 31.2-52.3 117-82.9 174.2-70.6z" opacity=".18" fill="#fc5b3f"/></svg>