<svg version="1.1" id="Layer_1" xmlns="http://www.w3.org/2000/svg" x="0" y="0" width="500" height="396.8" xml:space="preserve"><path d="M84.4 386c-18.1-3-35.2-10.6-49.6-22-17-13.3-35.4-31.3-34.8-53.6.6-23.7 9.4-46.4 19.2-67.7 12.9-28.8 30.9-59.1 26.1-91.1-4.7-31.5 1.6-70.3 18.5-97.5 26.7-42.6 73.3-53 120-54 30.8-.6 62.5 1.2 90.6 13.9 29.5 13.3 53.1 38 83.3 49.4 20 7.5 41.8 9 61.4 17.5 24.6 10.7 43.6 31.9 55.9 55.7 12.3 23.9 18.5 50.3 23.2 76.6 7.8 44.5-10.7 100-37.4 136.4-17.9 24.4-47.7 52.4-78.4 46.4-155.7-29.7-125.8 17.8-298-10z" opacity=".18" fill="#fc5b3f"/><path d="M194.8 210.2l-.4-.4 2.6 3c-.6-.8-1.4-1.7-2.2-2.6z" fill="#dc9bd5"/></svg>