<svg version="1.1" id="Layer_1" xmlns="http://www.w3.org/2000/svg" x="0" y="0" width="500" height="409.6" xml:space="preserve"><path d="M2.7 295.9c2.7 16.8 19.4 94.8 80.2 111.3 46 12.6 175.2-30.5 248.8-8.8C479.8 442 507 325 498.7 293.5c-5.8-22-12.9-44.1-13.1-67.1-.2-24 8.2-47.7 9.2-71.9 2.3-61.3-40.7-121.4-99.5-139C370.1 8 349.6.3 323.3.1 270-.4 143.6.1 81.4 90.6c-11.1 16.2-27.3 28.3-39.7 43.5-16.6 20.4-27.6 45-34.2 70.4-7.8 29.8-9.7 61.2-4.8 91.4z" opacity=".18" fill="#fc5b3f"/><path d="M183.4 265.7l-.2-.2 1.8 2.1-1.6-1.9zm-78.4-.4l-.2-.2 1.8 2.1-1.6-1.9zm154.3-.1l-.2-.2 1.8 2.1c-.5-.7-1.1-1.3-1.6-1.9z" fill="#dc9bd5"/></svg>