<svg version="1.1" id="Layer_1" xmlns="http://www.w3.org/2000/svg" x="0" y="0" width="480" height="409.9" xml:space="preserve"><path d="M470.5 275.8c-3.5 13.7-9.5 27.5-14.9 39.7-20.2 46.2-54.1 77.8-107.3 71.3-25.6-3.2-50.8-11.7-76.6-10.9-24.7.8-48.2 10.1-71.7 17.9-43.6 14.4-91.9 23.7-135 7.8s-76.5-64.8-61.2-108.1C15.7 259.7 53 237 57 201.3 62 155 7.2 115 18.8 69.8c4.9-19 20.7-33.2 37.5-43.4C94.9 2.8 142.2-5 186.4 3.1c42.1 7.6 77.2 43 119.6 44.6 27.4 1.1 53.7-14.5 80.9-11.9 33.7 3.3 58.5 33.1 74.2 63.1 5.1 9.4 9.3 19.1 12.7 29.3 6.5 20.5 7.9 42.5 3.8 63.7-4.1 21.8-3.6 42.2-4.2 64.6-.1 6.5-1.2 13-2.9 19.3z" opacity=".18" fill="#fc5b3f"/></svg>