<?xml version="1.0" encoding="utf-8"?>
<!-- Generator: Adobe Illustrator 25.0.0, SVG Export Plug-In . SVG Version: 6.00 Build 0)  -->
<svg version="1.1" id="Layer_1" xmlns="http://www.w3.org/2000/svg" xmlns:xlink="http://www.w3.org/1999/xlink" x="0px" y="0px"
	 viewBox="0 0 160 44.1" style="enable-background:new 0 0 160 44.1;" xml:space="preserve">
<style type="text/css">
	.st0{fill:#FC5B3F;}
	.st1{fill:#FFFFFF;}
</style>
<path class="st0" d="M3.1,7"/>
<g>
	<path class="st0" d="M137.6,21.8l15.3-9.3c0.5-0.3,0.8-0.9,0.8-1.5l-0.2-5.7c0-1.3-1.4-2.1-2.5-1.4L137.2,12
		c-0.4,0.2-0.8,0.2-1.2,0l-14.2-8.4c-1.2-0.7-2.8,0.1-2.8,1.5v5.6c0,0.8,0.4,1.5,1.1,1.9l6.6,3.9c0.9,0.5,2,0.5,2.9,0l5.8-3.4
		c0,0,0,0,0,0l0.1-0.1c0.2-0.1,0.3-0.1,0.5-0.2c0.2-0.1,0.4,0.1,0.4,0.3v7.9c0,0.8-0.4,1.5-1.1,1.9l-14.8,8.7
		c-0.7,0.4-1.1,1.1-1.1,1.9v4.9c0,1.7,1.8,2.7,3.3,1.8l13.7-8.4c0.2-0.1,0.4-0.1,0.6,0l12.9,8.4c1.3,0.8,3-0.1,3-1.6v-6.4
		c0-0.5-0.3-1-0.7-1.2l-6.9-3.4c-0.7-0.4-1.6-0.3-2.2,0.1l-5,3.1c-0.2,0.1-0.5,0.3-0.7,0.4c-0.4,0.1-0.7-0.1-0.8-0.5
		c0-1.6-0.2-5.1-0.2-7C136.5,23,136.9,22.2,137.6,21.8z"/>
	<g>
		<g>
			<path class="st1" d="M40.7,39.3h-2.3c-1.8,0-3.3-1.2-3.8-2.9l-3.9-15.2c-0.2-0.6-0.5-2-0.9-4c-0.4-2-0.7-3.4-0.7-4.1
				c-0.1,0.8-0.3,2.2-0.7,4.1c-0.4,1.9-0.7,3.2-0.9,4l-3.9,15.2c-0.4,1.7-2,2.9-3.8,2.9h-2.3c-1.8,0-3.3-1.2-3.8-2.9L6.4,7.2
				C6.1,6,7,4.8,8.2,4.8h3.2c0.9,0,1.7,0.6,1.9,1.5l4.1,17.4c0.8,3.5,1.3,6.5,1.7,9c0.1-0.9,0.3-2.3,0.6-4.2c0.3-1.9,0.7-3.3,1-4.4
				l4.7-17.9c0.2-0.8,1-1.4,1.8-1.4h4c0.9,0,1.6,0.6,1.8,1.4l4.7,17.9c0.2,0.9,0.5,2.2,0.8,4c0.3,1.8,0.6,3.3,0.8,4.6
				c0.2-1.2,0.4-2.8,0.8-4.6c0.3-1.8,0.7-3.3,0.9-4.4l4-17.4c0.2-0.9,1-1.5,1.9-1.5H50c1.2,0,2.2,1.2,1.8,2.4l-7.4,29.2
				C44,38.1,42.4,39.3,40.7,39.3z"/>
			<path class="st1" d="M77.3,39.3H58.7c-1,0-1.8-0.8-1.8-1.8V6.6c0-1,0.8-1.8,1.8-1.8H75c0.9,0,1.7,0.7,1.7,1.7v2.7
				c0,0.9-0.7,1.7-1.7,1.7H64.1v7.6h10c0.9,0,1.7,0.7,1.7,1.7v2.7c0,0.9-0.7,1.7-1.7,1.7h-10v8.9h13.1c0.9,0,1.7,0.7,1.7,1.7v2.7
				C78.9,38.5,78.2,39.3,77.3,39.3z"/>
			<path class="st1" d="M83.9,6.6c0-1,0.8-1.8,1.8-1.8h8.9c4.9,0,8.4,0.7,10.7,2.1c2.2,1.4,3.3,3.6,3.3,6.6c0,2.1-0.5,3.8-1.5,5.1
				c-1,1.3-2.3,2.1-3.9,2.4v0.2c2.2,0.5,3.8,1.4,4.7,2.7c1,1.3,1.5,3.1,1.5,5.3c0,3.1-1.1,5.6-3.4,7.4c-2.3,1.8-5.4,2.6-9.3,2.6
				H85.7c-1,0-1.8-0.8-1.8-1.8V6.6z M91.2,18.5h4.2c2,0,3.4-0.3,4.3-0.9c0.9-0.6,1.3-1.6,1.3-3c0-1.3-0.5-2.3-1.5-2.8
				c-1-0.6-2.5-0.9-4.6-0.9h-3.8V18.5z M91.2,24.3v9h4.8c2,0,3.5-0.4,4.5-1.2c1-0.8,1.4-2,1.4-3.5c0-2.9-2-4.3-6.1-4.3H91.2z"/>
		</g>
	</g>
</g>
</svg>
