<?xml version="1.0" encoding="utf-8"?>
<!-- Generator: Adobe Illustrator 25.0.0, SVG Export Plug-In . SVG Version: 6.00 Build 0)  -->
<svg version="1.1" id="Layer_1" xmlns="http://www.w3.org/2000/svg" xmlns:xlink="http://www.w3.org/1999/xlink" x="0px" y="0px"
	 viewBox="0 0 102.24 89.28" style="enable-background:new 0 0 102.24 89.28;" xml:space="preserve">
<style type="text/css">
	.st0{fill:#F15C43;}
</style>
<path class="st0" d="M11.75,76.52h13.38c0.37,0,0.73-0.14,1-0.39l21.59-19.94c1.93-1.78,1.99-4.81,0.13-6.67L25.21,26.86
	c-0.19-0.19,0.08-0.48,0.28-0.3l58.85,51.63c3.6,3.16,8.61-1.75,5.52-5.41L65.45,43.84c-0.81-0.96-0.66-2.4,0.32-3.18L93.57,18.7
	L61.63,39.53c-1.13,0.74-1.35,2.3-0.46,3.32l19.69,22.62L18.54,11.53c-2.38-2.06-5.95-1.92-8.16,0.33l0,0
	c-2.36,2.4-2.27,6.27,0.2,8.55l28.69,26.59c2.16,2,1.93,5.48-0.48,7.18L10.9,73.83C9.72,74.66,10.31,76.52,11.75,76.52z"/>
</svg>
